<?xml version="1.0" encoding="utf-8"?><svg xmlns="http://www.w3.org/2000/svg" xmlns:xlink="http://www.w3.org/1999/xlink"><symbol viewBox="0 0 20 20" id="call" xmlns="http://www.w3.org/2000/svg"><defs><path id="aa" d="M311.1 4209v3a2 2 0 0 1-1.97 2h-1v6h1a2 2 0 0 1 1.97 2v3a2 2 0 0 1-1.97 2h-1.46a4.99 4.99 0 0 1-4.82-3.92 28.43 28.43 0 0 1 0-12.2 4.98 4.98 0 0 1 4.82-3.88h1.46a2 2 0 0 1 1.97 2zm10.88 8c0 4.96-4 9-8.9 9v-2a6.97 6.97 0 0 0 6.92-7c0-3.86-3.1-7-6.92-7v-2c4.9 0 8.9 4.04 8.9 9zm-8.9 5v-2a2.99 2.99 0 0 0 2.97-3c0-1.65-1.33-3-2.97-3v-2a4.98 4.98 0 0 1 4.95 5c0 2.76-2.22 5-4.95 5z"/></defs><use xlink:href="#aa" transform="translate(-302 -4207)"/></symbol><symbol viewBox="0 0 20 20" id="cart" xmlns="http://www.w3.org/2000/svg"><defs><path id="ba" d="M1099 19l-1.16 14h-17.7l-1.16-14h5.05v-1c0-2.76 2.22-5 4.96-5a4.99 4.99 0 0 1 4.96 5v1zm-13 0h5.95v-1a3 3 0 0 0-2.97-3 3 3 0 0 0-2.98 3zm1 3h-3.98v2h3.97zm7.93 0h-3.97v2h3.97z"/></defs><use xlink:href="#ba" transform="translate(-1079 -13)"/></symbol><symbol viewBox="0 0 20 20" id="comment" xmlns="http://www.w3.org/2000/svg"><defs><path id="ca" d="M317 3552v-4h-2v-11h15v11h-7.67zm18-9v10h-2v4l-5.33-4H321v-1.5l2-1.5h9v-7z"/></defs><use xlink:href="#ca" transform="translate(-315 -3537)"/></symbol><symbol viewBox="0 0 40 28" id="delivery" xmlns="http://www.w3.org/2000/svg"><defs><path id="da" d="M1334 3936v10h-20v-10zm-24 14h24v10h-6.37a6 6 0 0 1-5.63 4c-2.6 0-4.8-1.68-5.63-4h-6.74a6 6 0 0 1-5.63 4c-2.6 0-4.8-1.68-5.63-4H1294v-8a6 6 0 0 1 6-6 2 2 0 0 0 2-2v-2a6 6 0 0 1 6-6h2zm-4 8a2 2 0 0 0-4 0 2 2 0 0 0 4 0zm14 0z"/></defs><use xlink:href="#da" transform="translate(-1294 -3936)"/></symbol><symbol viewBox="0 0 60 42" id="email" xmlns="http://www.w3.org/2000/svg"><defs><path id="ea" d="M345 3759v42h-60v-42zm-6.01 6h-4.9l-19.1 16.98L295.9 3765h-4.92v3.7l12.75 11.3-12.75 11.31v3.7h4.89l12.36-10.99 4.77 4.23c.57.48 1.29.75 1.98.75.72 0 1.44-.27 2-.75l4.78-4.23L334.1 3795h4.89v-3.69l-12.72-11.3 12.72-11.32z"/></defs><use xlink:href="#ea" transform="translate(-285 -3759)"/></symbol><symbol viewBox="0 0 40 40" id="exclusive" xmlns="http://www.w3.org/2000/svg"><defs><path id="fa" d="M1106 3950h18v20h-18zm22 0h18v20h-18zm18-12v8h-40v-8h4.37a5.93 5.93 0 0 1-.37-2 6 6 0 0 1 6-6h4a6 6 0 0 1 6 6 6 6 0 0 1 6-6h4a6 6 0 0 1 6 6c0 .7-.14 1.37-.37 2zm-24-2a2 2 0 0 0-2-2h-4a2 2 0 0 0 0 4h6zm16 0a2 2 0 0 0-2-2h-4a2 2 0 0 0-2 2v2h6a2 2 0 0 0 2-2z"/></defs><use xlink:href="#fa" transform="translate(-1106 -3930)"/></symbol><symbol viewBox="0 0 13 27" id="facebook" xmlns="http://www.w3.org/2000/svg"><defs><path id="ga" d="M1275.61 4549.18h2.59v-2.56c0-1.13.02-2.87.83-3.95a4.57 4.57 0 0 1 4-1.92c3.27 0 4.64.47 4.64.47l-.64 3.9s-1.08-.3-2.09-.3c-1 0-1.9.36-1.9 1.38v2.98h4.12l-.29 3.82h-3.83v13.25h-4.84V4553h-2.59z"/></defs><use xlink:href="#ga" transform="translate(-1275 -4540)"/></symbol><symbol viewBox="0 0 40 40" id="free" xmlns="http://www.w3.org/2000/svg"><defs><path id="ha" d="M383.6 3942h-13.62v-12h11.67zm.4 4l-.06 24h-39.88l-.07-24h14.03v10.08l5.98-3.73 5.98 3.73V3946zm-25.98-4h-13.64l1.97-12h11.67zm7.97 0h-3.98v-12h3.98z"/></defs><use xlink:href="#ha" transform="translate(-344 -3930)"/></symbol><symbol viewBox="0 0 20 20" id="location" xmlns="http://www.w3.org/2000/svg"><defs><path id="ia" d="M323 4377h-20l3-9h1.24c.38.67.8 1.35 1.22 2h-1.02l-1.66 5h14.45l-1.67-5h-1.02c.43-.65.85-1.33 1.23-2H320zm-10.78-4.38c-.54-.67-5.21-6.6-5.21-9.62a6 6 0 0 1 12 0c0 3.02-4.7 8.95-5.23 9.62l-.78.97zM312 4363a1 1 0 0 0 1 1 1 1 0 0 0 1-1c0-.56-.44-1-1-1a1 1 0 0 0-1 1z"/></defs><use xlink:href="#ia" transform="translate(-303 -4357)"/></symbol><symbol viewBox="0 0 60 42" id="mail" xmlns="http://www.w3.org/2000/svg"><defs><path id="ja" d="M345 3759v42h-60v-42zm-6.01 6h-4.9l-19.1 16.98L295.9 3765h-4.92v3.7l12.75 11.3-12.75 11.31v3.7h4.89l12.36-10.99 4.77 4.23c.57.48 1.29.75 1.98.75.72 0 1.44-.27 2-.75l4.78-4.23L334.1 3795h4.89v-3.69l-12.72-11.3 12.72-11.32z"/></defs><use xlink:href="#ja" transform="translate(-285 -3759)"/></symbol><symbol viewBox="0 0 512 512" id="menu" xmlns="http://www.w3.org/2000/svg"><path d="M491.318 235.318H20.682C9.26 235.318 0 244.577 0 256s9.26 20.682 20.682 20.682h470.636c11.423 0 20.682-9.259 20.682-20.682 0-11.422-9.259-20.682-20.682-20.682zm0-156.879H20.682C9.26 78.439 0 87.699 0 99.121c0 11.422 9.26 20.682 20.682 20.682h470.636c11.423 0 20.682-9.26 20.682-20.682 0-11.422-9.259-20.682-20.682-20.682zm0 313.758H20.682C9.26 392.197 0 401.456 0 412.879s9.26 20.682 20.682 20.682h470.636c11.423 0 20.682-9.259 20.682-20.682s-9.259-20.682-20.682-20.682z"/></symbol><symbol viewBox="0 0 40 40" id="money-back" xmlns="http://www.w3.org/2000/svg"><defs><path id="la" d="M566.98 3938.02H541.5l5.94-7.28a2 2 0 0 1 1.5-.72c.6-.02 1.16.22 1.54.66l4.62 5.12 3.48-3.24a2 2 0 0 1 2.76.02zM575 3950h-6a6 6 0 1 0 0 12h6v8h-40v-28h40zm-6 4h6v4h-6a2 2 0 1 1 0-4z"/></defs><use xlink:href="#la" transform="translate(-535 -3930)"/></symbol><symbol viewBox="0 0 40 40" id="prices" xmlns="http://www.w3.org/2000/svg"><defs><path id="ma" d="M955 3950c0 11.03-8.97 20-20 20s-20-8.97-20-20 8.97-20 20-20 20 8.97 20 20zm-22-4a2 2 0 0 1 4 0h4c0-2.6-1.68-4.8-4-5.63V3938h-4v2.37a5.99 5.99 0 0 0 2 11.63 2 2 0 1 1-2 2h-4c0 2.6 1.68 4.8 4 5.63v2.37h4v-2.37a5.99 5.99 0 0 0-2-11.63 2 2 0 0 1-2-2z"/></defs><use xlink:href="#ma" transform="translate(-915 -3930)"/></symbol><symbol viewBox="0 0 27 27" id="printerest" xmlns="http://www.w3.org/2000/svg"><defs><path id="na" d="M1331.5 4540.75a12.75 12.75 0 0 0-5.12 24.43c-.03-.9 0-1.96.22-2.93l1.64-6.95s-.4-.81-.4-2.02c0-1.89 1.1-3.3 2.46-3.3 1.16 0 1.72.87 1.72 1.92 0 1.16-.75 2.9-1.13 4.52-.32 1.36.68 2.46 2.01 2.46 2.42 0 4.05-3.1 4.05-6.78 0-2.8-1.89-4.89-5.31-4.89a6.04 6.04 0 0 0-6.28 6.1c0 1.12.33 1.9.84 2.51.24.28.27.4.19.71l-.26 1.02c-.09.33-.35.44-.64.32-1.78-.72-2.61-2.67-2.61-4.87 0-3.62 3.05-7.96 9.11-7.96 4.87 0 8.07 3.52 8.07 7.3 0 5-2.78 8.74-6.88 8.74-1.37 0-2.67-.74-3.11-1.59 0 0-.74 2.94-.9 3.5-.27.99-.8 1.97-1.28 2.74a12.75 12.75 0 1 0 3.61-24.98"/></defs><use xlink:href="#na" transform="translate(-1318 -4540)"/></symbol><symbol viewBox="0 0 0 0" id="sprite" xmlns="http://www.w3.org/2000/svg"/><symbol viewBox="0 0 40 40" id="support" xmlns="http://www.w3.org/2000/svg"><defs><path id="pa" d="M750.84 3969.9c-4.55 0-10.59-3.1-16.07-8.62-7.92-7.96-10.8-17.09-6.69-21.22l3.91-3.94a3.9 3.9 0 0 1 5.56 0l4.16 4.2a3.97 3.97 0 0 1 0 5.59l-1.8 1.8c0 .6.69 2.67 3.19 5.19 2.5 2.5 4.54 3.2 5.14 3.2l1.8-1.8a3.9 3.9 0 0 1 5.56 0l4.16 4.19a3.97 3.97 0 0 1 0 5.59l-3.9 3.94a6.82 6.82 0 0 1-5.02 1.87zm-7.58-33.62l-2.8-2.82a15.66 15.66 0 0 1 11.75-2.99 15.77 15.77 0 0 1 13.13 13.01c.71 4.43-.42 8.72-2.93 12.09l-2.8-2.82a11.98 11.98 0 0 0 1.85-8.63c-.8-5-4.84-9-9.82-9.73-3.03-.45-6 .27-8.38 1.89zm12.44 11.84h-7.85v-9.89h3.92v5.94h3.93z"/></defs><use xlink:href="#pa" transform="translate(-726 -3930)"/></symbol><symbol viewBox="0 0 26 21" id="twitter" xmlns="http://www.w3.org/2000/svg"><defs><path id="qa" d="M1244.3 4545.6c-.97.42-2 .7-3.1.83a5.32 5.32 0 0 0 2.37-2.93c-1.04.61-2.19 1.05-3.42 1.29a5.4 5.4 0 0 0-9.3 3.62c0 .42.05.82.14 1.2a15.34 15.34 0 0 1-11.08-5.53 5.22 5.22 0 0 0 1.67 7.07 5.44 5.44 0 0 1-2.44-.66v.07c0 2.56 1.85 4.7 4.31 5.19a5.33 5.33 0 0 1-2.42.1 5.37 5.37 0 0 0 5.02 3.67 10.89 10.89 0 0 1-7.96 2.19 15.4 15.4 0 0 0 8.24 2.38c9.89 0 15.3-8.07 15.3-15.07 0-.23 0-.45-.02-.68a10.8 10.8 0 0 0 2.68-2.74"/></defs><use xlink:href="#qa" transform="translate(-1218 -4543)"/></symbol><symbol viewBox="0 0 27 18" id="youtube" xmlns="http://www.w3.org/2000/svg"><defs><path id="ra" d="M1386.45 4553.94l-8.35 4.93V4549zm7.8-4.6s0-4.4-4.4-4.4h-16.7s-4.4 0-4.4 4.4v9.17s0 4.41 4.4 4.41h16.7s4.4 0 4.4-4.41z"/></defs><use xlink:href="#ra" transform="translate(-1368 -4545)"/></symbol></svg>