<svg xmlns="http://www.w3.org/2000/svg" xmlns:xlink="http://www.w3.org/1999/xlink" width="20" height="20" viewBox="0 0 20 20"><defs><path id="djwqa" d="M311.1 4209v3a2 2 0 0 1-1.97 2h-1v6h1a2 2 0 0 1 1.97 2v3a2 2 0 0 1-1.97 2h-1.46a4.99 4.99 0 0 1-4.82-3.92 28.43 28.43 0 0 1 0-12.2 4.98 4.98 0 0 1 4.82-3.88h1.46a2 2 0 0 1 1.97 2zm10.88 8c0 4.96-4 9-8.9 9v-2a6.97 6.97 0 0 0 6.92-7c0-3.86-3.1-7-6.92-7v-2c4.9 0 8.9 4.04 8.9 9zm-8.9 5v-2a2.99 2.99 0 0 0 2.97-3c0-1.65-1.33-3-2.97-3v-2a4.98 4.98 0 0 1 4.95 5c0 2.76-2.22 5-4.95 5z"/></defs><g><g transform="translate(-302 -4207)"><use fill="#fff" xlink:href="#djwqa"/></g></g></svg>