<svg xmlns="http://www.w3.org/2000/svg" xmlns:xlink="http://www.w3.org/1999/xlink" width="40" height="40" viewBox="0 0 40 40"><defs><path id="or0xa" d="M1106 3950h18v20h-18zm22 0h18v20h-18zm18-12v8h-40v-8h4.37a5.93 5.93 0 0 1-.37-2 6 6 0 0 1 6-6h4a6 6 0 0 1 6 6 6 6 0 0 1 6-6h4a6 6 0 0 1 6 6c0 .7-.14 1.37-.37 2zm-24-2a2 2 0 0 0-2-2h-4a2 2 0 0 0 0 4h6zm16 0a2 2 0 0 0-2-2h-4a2 2 0 0 0-2 2v2h6a2 2 0 0 0 2-2z"/></defs><g><g transform="translate(-1106 -3930)"><use fill="#ff7373" xlink:href="#or0xa"/></g></g></svg>