<svg xmlns="http://www.w3.org/2000/svg" xmlns:xlink="http://www.w3.org/1999/xlink" width="20" height="20" viewBox="0 0 20 20"><defs><path id="mgeja" d="M323 4377h-20l3-9h1.24c.38.67.8 1.35 1.22 2h-1.02l-1.66 5h14.45l-1.67-5h-1.02c.43-.65.85-1.33 1.23-2H320zm-10.78-4.38c-.54-.67-5.21-6.6-5.21-9.62a6 6 0 0 1 12 0c0 3.02-4.7 8.95-5.23 9.62l-.78.97zM312 4363a1 1 0 0 0 1 1 1 1 0 0 0 1-1c0-.56-.44-1-1-1a1 1 0 0 0-1 1z"/></defs><g><g transform="translate(-303 -4357)"><use fill="#fff" xlink:href="#mgeja"/></g></g></svg>