<svg xmlns="http://www.w3.org/2000/svg" xmlns:xlink="http://www.w3.org/1999/xlink" width="40" height="40" viewBox="0 0 40 40"><defs><path id="jelna" d="M955 3950c0 11.03-8.97 20-20 20s-20-8.97-20-20 8.97-20 20-20 20 8.97 20 20zm-22-4a2 2 0 0 1 4 0h4c0-2.6-1.68-4.8-4-5.63V3938h-4v2.37a5.99 5.99 0 0 0 2 11.63 2 2 0 1 1-2 2h-4c0 2.6 1.68 4.8 4 5.63v2.37h4v-2.37a5.99 5.99 0 0 0-2-11.63 2 2 0 0 1-2-2z"/></defs><g><g transform="translate(-915 -3930)"><use fill="#ff7373" xlink:href="#jelna"/></g></g></svg>