<svg xmlns="http://www.w3.org/2000/svg" xmlns:xlink="http://www.w3.org/1999/xlink" width="27" height="27" viewBox="0 0 27 27"><defs><path id="7s4ga" d="M1331.5 4540.75a12.75 12.75 0 0 0-5.12 24.43c-.03-.9 0-1.96.22-2.93l1.64-6.95s-.4-.81-.4-2.02c0-1.89 1.1-3.3 2.46-3.3 1.16 0 1.72.87 1.72 1.92 0 1.16-.75 2.9-1.13 4.52-.32 1.36.68 2.46 2.01 2.46 2.42 0 4.05-3.1 4.05-6.78 0-2.8-1.89-4.89-5.31-4.89a6.04 6.04 0 0 0-6.28 6.1c0 1.12.33 1.9.84 2.51.24.28.27.4.19.71l-.26 1.02c-.09.33-.35.44-.64.32-1.78-.72-2.61-2.67-2.61-4.87 0-3.62 3.05-7.96 9.11-7.96 4.87 0 8.07 3.52 8.07 7.3 0 5-2.78 8.74-6.88 8.74-1.37 0-2.67-.74-3.11-1.59 0 0-.74 2.94-.9 3.5-.27.99-.8 1.97-1.28 2.74a12.75 12.75 0 1 0 3.61-24.98"/></defs><g><g transform="translate(-1318 -4540)"><use fill="#fff" xlink:href="#7s4ga"/></g></g></svg>