<svg xmlns="http://www.w3.org/2000/svg" xmlns:xlink="http://www.w3.org/1999/xlink" width="40" height="40" viewBox="0 0 40 40"><defs><path id="mzpla" d="M750.84 3969.9c-4.55 0-10.59-3.1-16.07-8.62-7.92-7.96-10.8-17.09-6.69-21.22l3.91-3.94a3.9 3.9 0 0 1 5.56 0l4.16 4.2a3.97 3.97 0 0 1 0 5.59l-1.8 1.8c0 .6.69 2.67 3.19 5.19 2.5 2.5 4.54 3.2 5.14 3.2l1.8-1.8a3.9 3.9 0 0 1 5.56 0l4.16 4.19a3.97 3.97 0 0 1 0 5.59l-3.9 3.94a6.82 6.82 0 0 1-5.02 1.87zm-7.58-33.62l-2.8-2.82a15.66 15.66 0 0 1 11.75-2.99 15.77 15.77 0 0 1 13.13 13.01c.71 4.43-.42 8.72-2.93 12.09l-2.8-2.82a11.98 11.98 0 0 0 1.85-8.63c-.8-5-4.84-9-9.82-9.73-3.03-.45-6 .27-8.38 1.89zm12.44 11.84h-7.85v-9.89h3.92v5.94h3.93z"/></defs><g><g transform="translate(-726 -3930)"><use fill="#ff7373" xlink:href="#mzpla"/></g></g></svg>