<svg xmlns="http://www.w3.org/2000/svg" xmlns:xlink="http://www.w3.org/1999/xlink" width="26" height="21" viewBox="0 0 26 21"><defs><path id="4bl0a" d="M1244.3 4545.6c-.97.42-2 .7-3.1.83a5.32 5.32 0 0 0 2.37-2.93c-1.04.61-2.19 1.05-3.42 1.29a5.4 5.4 0 0 0-9.3 3.62c0 .42.05.82.14 1.2a15.34 15.34 0 0 1-11.08-5.53 5.22 5.22 0 0 0 1.67 7.07 5.44 5.44 0 0 1-2.44-.66v.07c0 2.56 1.85 4.7 4.31 5.19a5.33 5.33 0 0 1-2.42.1 5.37 5.37 0 0 0 5.02 3.67 10.89 10.89 0 0 1-7.96 2.19 15.4 15.4 0 0 0 8.24 2.38c9.89 0 15.3-8.07 15.3-15.07 0-.23 0-.45-.02-.68a10.8 10.8 0 0 0 2.68-2.74"/></defs><g><g transform="translate(-1218 -4543)"><use fill="#fff" xlink:href="#4bl0a"/></g></g></svg>